<svg xmlns="http://www.w3.org/2000/svg" viewBox="0 0 22.32 22.938"><g fill="currentColor"><path d="M.907 12.856h.976c1.115 0 2.154.6 2.712 1.564l2.419 4.176a3.53 3.53 0 0 0 3.055 1.763h10.758v-.97H10.07a2.56 2.56 0 0 1-2.217-1.278l-2.418-4.177a4.12 4.12 0 0 0-3.55-2.047H.061A.063.063 0 0 0 0 11.95c0 .5.406.906.907.906M20.827 16.215a.26.26 0 0 0-.258-.259h-5.2a.26.26 0 0 0-.26.259v.452c0 .143.116.259.26.259h5.2a.26.26 0 0 0 .258-.26z"/><path d="M20.569 17.528h-5.2a.26.26 0 0 0-.26.259v.452c0 .143.116.259.26.259h5.2a.26.26 0 0 0 .258-.259v-.452a.26.26 0 0 0-.258-.259"/><path d="M5.777 13.506v.417c0 .153.124.277.276.277h6.936c.156 0 .282.126.282.282v.655a.28.28 0 0 1-.282.282H7.287a.276.276 0 0 0-.275.276v.418c0 .152.123.276.275.276h5.702c.156 0 .282.126.282.282v.772a.28.28 0 0 1-.282.282h-4.27a.276.276 0 0 0-.276.276v.417c0 .153.124.276.276.276h4.64a.88.88 0 0 0 .882-.881V1.468c0-.275.223-.499.498-.499h6.113c.276 0 .499.224.499.5v18.886c0 .026.021.048.047.048h.137a.785.785 0 0 0 .785-.786V.881A.88.88 0 0 0 21.44 0h-7.288a.88.88 0 0 0-.88.881v12.067a.28.28 0 0 1-.283.282H6.053a.276.276 0 0 0-.276.276"/><path d="m6.641 11.668.424-.915a.15.15 0 0 1 .14-.09h4.123c.062 0 .12.04.143.097l.365.916c.04.101-.035.21-.143.21H6.78a.154.154 0 0 1-.14-.218m-.367 1.188h5.896a.8.8 0 0 0 .743-1.095l-.623-1.564a.8.8 0 0 0-.743-.503H6.998a.8.8 0 0 0-.725.464l-.724 1.562a.8.8 0 0 0 .052.767c.147.231.4.37.673.37M7.155 4.265q.001-.013.014-.014h4.047q.013.001.014.014v1.16a.014.014 0 0 1-.014.014H7.169a.014.014 0 0 1-.014-.014zm.014 2.144h1.267c.159 0 .287.128.287.287v1.47c0 .159-.128.287-.287.287H7.104a.21.21 0 0 0-.212.212v.546c0 .117.095.212.212.212h4.399a.21.21 0 0 0 .212-.212v-.546a.21.21 0 0 0-.212-.212H9.98a.29.29 0 0 1-.287-.288V6.696c0-.159.129-.287.287-.287h1.236c.543 0 .983-.44.983-.984v-1.16a.983.983 0 0 0-.983-.983H7.169a.983.983 0 0 0-.984.983v1.16c0 .543.44.984.984.984M16.474 10.027a.187.187 0 0 1-.19.183h-.445a.187.187 0 0 1-.19-.183V7.765c0-.102.085-.184.19-.184h.444c.105 0 .19.082.19.184zm4.353-7.758c0-.448-.377-.812-.842-.812h-4.033c-.465 0-.843.364-.843.812v12.506c0 .448.378.812.843.812h4.033c.465 0 .842-.364.842-.812zM9.893 21.811a.418.418 0 1 1 .835.002.418.418 0 0 1-.835-.002m1.544 0a1.128 1.128 0 0 0-2.254 0 1.128 1.128 0 0 0 2.254 0M19.427 21.394a.418.418 0 1 1-.001.836.418.418 0 0 1 0-.836m0 1.544c.622 0 1.128-.505 1.128-1.127a1.128 1.128 0 1 0-1.127 1.127"/></g></svg>
